<svg xmlns="http://www.w3.org/2000/svg" viewBox="0 0 64 64">
  <defs>
    <linearGradient id="bg" x1="0%" y1="0%" x2="100%" y2="100%">
      <stop offset="0%" stop-color="#0f172a" />
      <stop offset="100%" stop-color="#1e293b" />
    </linearGradient>
    <linearGradient id="word" x1="0%" y1="0%" x2="100%" y2="100%">
      <stop offset="0%" stop-color="#2563eb" />
      <stop offset="100%" stop-color="#1d4ed8" />
    </linearGradient>
    <linearGradient id="word-fold" x1="0%" y1="0%" x2="100%" y2="100%">
      <stop offset="0%" stop-color="#60a5fa" />
      <stop offset="100%" stop-color="#3b82f6" />
    </linearGradient>
    <linearGradient id="pdf" x1="0%" y1="0%" x2="100%" y2="100%">
      <stop offset="0%" stop-color="#f87171" />
      <stop offset="100%" stop-color="#dc2626" />
    </linearGradient>
    <linearGradient id="pdf-fold" x1="0%" y1="0%" x2="100%" y2="100%">
      <stop offset="0%" stop-color="#fecaca" />
      <stop offset="100%" stop-color="#fca5a5" />
    </linearGradient>
    <filter id="shadow" x="-20%" y="-20%" width="140%" height="140%" color-interpolation-filters="sRGB">
      <feDropShadow dx="0" dy="2" stdDeviation="2.5" flood-color="rgba(15, 23, 42, 0.45)" />
    </filter>
  </defs>
  <rect width="64" height="64" rx="14" ry="14" fill="url(#bg)" />
  <g filter="url(#shadow)">
    <path
      d="M12.5 13.5h18l5.5 5.5v24.5a3.5 3.5 0 0 1-3.5 3.5h-20a3.5 3.5 0 0 1-3.5-3.5V17a3.5 3.5 0 0 1 3.5-3.5z"
      fill="url(#word)"
    />
    <path d="M31 13.5v7h7" fill="url(#word-fold)" />
    <path
      d="M16.5 22h3l1.6 7.8 2.4-7.8h2.1l2.4 7.8 1.6-7.8h3l-2.8 11.6h-3.1l-2-6.4-2 6.4h-3.1z"
      fill="#e2e8f0"
    />
    <path
      d="M24 33.8h10a1.7 1.7 0 0 1 0 3.4H24a1.7 1.7 0 0 1 0-3.4z"
      fill="rgba(226,232,240,0.65)"
    />
  </g>
  <g filter="url(#shadow)">
    <path
      d="M26 18h20l7 7v25.5a4.5 4.5 0 0 1-4.5 4.5H26a4.5 4.5 0 0 1-4.5-4.5V22.5A4.5 4.5 0 0 1 26 18z"
      fill="url(#pdf)"
    />
    <path d="M46 18v8h8" fill="url(#pdf-fold)" />
    <rect x="31" y="30" width="17" height="2.8" rx="1.4" fill="rgba(255,255,255,0.85)" />
    <rect x="31" y="36" width="20" height="2.8" rx="1.4" fill="rgba(255,255,255,0.7)" />
    <rect x="31" y="42" width="14" height="2.8" rx="1.4" fill="rgba(255,255,255,0.6)" />
    <path
      d="M34 47.5h3.1c1.7 0 2.9 1 2.9 2.6s-1.2 2.6-2.9 2.6H36v2.3h-2zM37 51c.6 0 1-.3 1-.9 0-.5-.4-.8-1-.8h-1v1.7z"
      fill="#fee2e2"
    />
    <path
      d="M40.5 47.5h3c2.4 0 4 1.6 4 4s-1.6 4-4 4h-3zm3 6c1.2 0 2-.8 2-2s-.8-2-2-2h-1v4z"
      fill="#fee2e2"
    />
    <path d="M48.5 47.5H54v1.8h-3.6v1.1h3.2v1.8h-3.2v2.8h-1.9z" fill="#fee2e2" />
  </g>
  <path
    d="M26 27.5l4.5-4.5 5.5 5.5"
    fill="none"
    stroke="#f8fafc"
    stroke-width="2.4"
    stroke-linecap="round"
    stroke-linejoin="round"
    opacity="0.9"
  />
</svg>