<svg xmlns="http://www.w3.org/2000/svg" viewBox="0 0 64 64">
  <defs>
    <linearGradient id="bg" x1="0%" y1="0%" x2="100%" y2="100%">
      <stop offset="0%" stop-color="#0f172a" />
      <stop offset="100%" stop-color="#1d4ed8" />
    </linearGradient>
    <linearGradient id="pen" x1="0%" y1="0%" x2="100%" y2="100%">
      <stop offset="0%" stop-color="#f97316" />
      <stop offset="100%" stop-color="#facc15" />
    </linearGradient>
  </defs>
  <rect width="64" height="64" rx="14" ry="14" fill="url(#bg)" />
  <path
    d="M20 14h18l10 10v26a4 4 0 0 1-4 4H20a4 4 0 0 1-4-4V18a4 4 0 0 1 4-4z"
    fill="#e2e8f0"
  />
  <path d="M38 14v10h10" fill="#cbd5f5" />
  <rect x="24" y="25" width="12" height="2.6" rx="1.3" fill="#1e3a8a" opacity="0.85" />
  <rect x="24" y="32" width="16" height="2.6" rx="1.3" fill="#1e3a8a" opacity="0.7" />
  <rect x="24" y="39" width="10" height="2.6" rx="1.3" fill="#1e3a8a" opacity="0.55" />
  <path
    d="M24.5 30.5l-3.4-3.4-2.4 2.4 4.6 4.6L30 27.4 27.6 25z"
    fill="#16a34a"
  />
  <path
    d="M37.8 42.4l7.8-7.8 6.4 6.4-7.9 7.8-4.4 1 1.1-4.4z"
    fill="url(#pen)"
  />
  <path d="M51.4 40.5l-3.2-3.2 1.9-1.9a2.5 2.5 0 0 1 3.5 3.5l-2.2 2.2z" fill="#fcd34d" />
  <path
    d="M34 50h18v2a2 2 0 0 1-2 2H36a2 2 0 0 1-2-2v-2z"
    fill="#0f172a"
    opacity="0.25"
  />
</svg>